<?xml version="1.0" encoding="utf-8"?>
<!-- Generator: Adobe Illustrator 16.0.0, SVG Export Plug-In . SVG Version: 6.00 Build 0)  -->
<!DOCTYPE svg PUBLIC "-//W3C//DTD SVG 1.1//EN" "http://www.w3.org/Graphics/SVG/1.1/DTD/svg11.dtd">
<svg version="1.1" id="Layer_1" xmlns="http://www.w3.org/2000/svg" xmlns:xlink="http://www.w3.org/1999/xlink" x="0px" y="0px"
	 width="300px" height="300px" viewBox="0 0 300 300" enable-background="new 0 0 300 300" xml:space="preserve">
<g>
	<path fill-rule="evenodd" clip-rule="evenodd" fill="#7CBAE4" d="M286,300c-89.333,0-178.667,0-268,0
		c-0.197-0.26-0.346-0.584-0.598-0.771c-2.309-1.712-3.039-3.978-1.943-6.58c1.083-2.571,3.448-2.798,5.903-2.71
		c2.111,0.075,4.228,0.016,6.792,0.016c0-2.574,0-4.534,0-6.493c0-59.954,0-119.908,0-179.862c0-1.332-0.021-2.665,0.012-3.997
		c0.077-3.069,1.771-4.994,4.583-5.803c1.561-0.449,3.268-0.533,4.909-0.54c10.825-0.044,21.65-0.012,32.475-0.035
		c1.588-0.003,3.176-0.163,5.094-0.268c0-2.379,0-4.188,0-5.998c0-10.825-0.006-21.65,0.003-32.475
		c0.007-7.32,3.235-8.716,8.277-8.416c2.987,0.178,5.995,0.076,8.991,0.007c1.087-0.025,2.169-0.32,3.459-0.524
		c0-6.617-0.03-12.933,0.009-19.248c0.035-5.618,1.531-7.16,7.025-7.215c5.329-0.053,10.659,0.014,15.987-0.032
		c1.254-0.011,2.506-0.264,3.979-0.43c0-4.526-0.107-8.679,0.047-12.823C123.078,3.86,123.653,1.934,124,0c2.667,0,5.333,0,8,0
		c0.503,6.212,1.006,12.425,1.528,18.882c1.354,0.067,2.651,0.182,3.949,0.187c5.164,0.021,10.329-0.032,15.493,0.021
		c5.086,0.052,6.943,1.872,7.009,6.854c0.058,4.331,0.005,8.663,0.017,12.994c0.007,2.272,0.047,4.543,0.073,6.913
		c3.531,0,6.454,0,9.699,0c0.087-1.842,0.219-3.465,0.228-5.089c0.029-5.164-0.059-10.33,0.035-15.493
		c0.074-4.079,2.063-5.983,6.158-6.184c0.665-0.033,1.332-0.007,1.999-0.007c29.32,0,58.642,0,87.962,0
		c0.667,0,1.335-0.027,1.999,0.008c4.585,0.242,6.484,2.195,6.687,6.902c0.051,1.164,0.01,2.332,0.01,3.498
		c0,25.989,0,51.978,0,77.967c0,58.808-0.002,117.616,0.008,176.424c0,1.924,0.117,3.848,0.184,5.896
		c1.732,0.077,2.877,0.149,4.022,0.174c1.332,0.028,2.671-0.064,3.997,0.033c4.021,0.299,5.889,3.198,4.461,6.927
		C287.109,297.976,286.512,298.971,286,300z M216.657,154.578c0.287-1.223,0.392-2.229,0.759-3.126
		c1.084-2.65,3.322-3.901,5.921-3.438c2.365,0.422,3.596,2.047,3.766,5.095c0.073,1.329,0.021,2.665,0.021,3.998
		c0.001,42.155-0.003,84.312,0.013,126.468c0.001,1.939,0.183,3.879,0.293,6.083c12.389,0,24.285,0,36.364,0
		c0-86.639,0-173.002,0-259.489c-0.946-0.143-1.581-0.323-2.217-0.322c-26.818,0.053-53.637,0.121-80.456,0.198
		c-0.138,0-0.291,0.131-0.409,0.233c-0.125,0.107-0.217,0.252-0.649,0.778c0,38.904-0.003,78.206,0.012,117.507
		c0,1.654,0.164,3.307,0.269,4.96c0.009,0.15,0.119,0.308,0.218,0.436c0.1,0.129,0.243,0.225,1.003,0.898c1.984,0,4.614,0,7.243,0
		c2.615,0,5.23,0,7.681,0c1.383-5.706,2.229-6.709,5.218-6.904c4.57-0.298,5.163,3.214,5.91,6.624
		C210.655,154.578,213.432,154.578,216.657,154.578z M39.115,104.25c0,61.947,0,123.531,0,185.408c7.641,0,15.033,0,22.933,0
		c0-1.87,0-3.492,0-5.114c0.001-5.166-0.082-10.334,0.028-15.499c0.097-4.545,1.586-6.057,5.977-6.092
		c8.5-0.066,17-0.075,25.499,0.008c4.045,0.04,5.421,1.413,5.5,5.396c0.103,5.165,0.016,10.333,0.037,15.499
		c0.008,1.933,0.092,3.864,0.141,5.768c8.163,0,15.741,0,23.459,0c0-61.917,0-123.504,0-185.373
		C94.853,104.25,67.263,104.25,39.115,104.25z M216.59,289.7c0.936-6.966,0.647-120.947-0.263-124.434
		c-8.924-0.959-79.667-0.55-83.062,0.476c0,41.239,0,82.474,0,123.958C161.114,289.7,188.691,289.7,216.59,289.7z M169.678,154.592
		c0-32.631,0-64.995,0-97.314c-7.415-0.971-79.974-0.637-83.461,0.358c0,11.896,0,23.809,0,36.247c1.894,0,3.515,0,5.136,0
		c11.824,0.001,23.649-0.03,35.473,0.021c4.21,0.018,4.574,0.372,6.14,4.398c0.229,0.587,0.484,1.164,0.771,1.85
		c3.645,0,7.136-0.005,10.627,0.003c1.165,0.003,2.352-0.092,3.491,0.091c3.173,0.511,5.118,2.509,5.179,5.142
		c0.065,2.835-1.987,4.979-5.421,5.406c-1.642,0.204-3.326,0.056-4.991,0.082c-3.096,0.049-6.192,0.11-9.285,0.166
		c0,5.63,0,10.7,0,16.138c4.141,0,7.947-0.056,11.75,0.028c1.471,0.032,2.99,0.198,4.389,0.626c2.274,0.697,3.604,2.27,3.566,4.805
		c-0.037,2.553-1.502,4.028-3.742,4.694c-1.4,0.416-2.929,0.513-4.404,0.541c-3.785,0.071-7.573,0.024-11.253,0.024
		c-0.947,5.306-0.865,12.907,0.107,16.694C145.64,154.592,157.554,154.592,169.678,154.592z M149.679,30.121
		c-3.804-1.195-38.586-1.363-43.403-0.262c0,5.225,0,10.475,0,15.675c5.794,0.954,39.769,0.762,43.403-0.223
		C149.679,40.235,149.679,35.135,149.679,30.121z M89.048,289.952c0-3.195,0.096-5.833-0.026-8.461
		c-0.128-2.751,0.57-5.592-0.493-8.17c-5.527,0-10.774,0-16.177,0c0,5.588,0,10.841,0,16.471c1.298-0.132,2.311-0.234,3.525-0.356
		c0-2.333-0.025-4.32,0.005-6.308c0.073-4.832,0.385-5.213,5.427-6.85c7.132,2.263,3.496,8.727,5.066,13.353
		C87.012,289.707,87.628,289.781,89.048,289.952z"/>
	<path fill-rule="evenodd" clip-rule="evenodd" fill="#FDFDFE" d="M124,0c-0.347,1.934-0.922,3.86-0.994,5.805
		c-0.154,4.144-0.047,8.296-0.047,12.823c-1.473,0.167-2.725,0.419-3.979,0.43c-5.329,0.046-10.659-0.021-15.987,0.032
		c-5.494,0.055-6.991,1.597-7.025,7.215c-0.039,6.315-0.009,12.631-0.009,19.248c-1.29,0.204-2.372,0.499-3.459,0.524
		c-2.996,0.069-6.004,0.171-8.991-0.007c-5.042-0.301-8.271,1.095-8.277,8.416c-0.01,10.825-0.003,21.65-0.003,32.475
		c0,1.81,0,3.619,0,5.998c-1.918,0.105-3.506,0.264-5.094,0.268c-10.825,0.022-21.65-0.01-32.475,0.035
		c-1.642,0.007-3.348,0.091-4.909,0.54c-2.812,0.809-4.506,2.733-4.583,5.803c-0.033,1.332-0.012,2.665-0.012,3.997
		c0,59.954,0,119.908,0,179.862c0,1.959,0,3.919,0,6.493c-2.565,0-4.681,0.06-6.792-0.016c-2.455-0.088-4.82,0.139-5.903,2.71
		c-1.096,2.603-0.366,4.868,1.943,6.58c0.252,0.187,0.401,0.511,0.598,0.771c-5.667,0-11.333,0-17,0C1,200,1,100,1,0
		C42,0,83,0,124,0z"/>
	<path fill-rule="evenodd" clip-rule="evenodd" fill="#FDFDFE" d="M286,300c0.512-1.029,1.109-2.024,1.518-3.093
		c1.428-3.729-0.44-6.628-4.461-6.927c-1.326-0.098-2.665-0.005-3.997-0.033c-1.146-0.024-2.29-0.097-4.022-0.174
		c-0.066-2.049-0.184-3.973-0.184-5.896c-0.01-58.808-0.008-117.616-0.008-176.424c0-25.989,0-51.978,0-77.967
		c0-1.166,0.041-2.334-0.01-3.498c-0.202-4.708-2.102-6.66-6.687-6.902c-0.664-0.035-1.332-0.008-1.999-0.008
		c-29.32,0-58.642,0-87.962,0c-0.667,0-1.334-0.025-1.999,0.007c-4.095,0.201-6.084,2.105-6.158,6.184
		c-0.094,5.163-0.006,10.329-0.035,15.493c-0.009,1.624-0.141,3.247-0.228,5.089c-3.245,0-6.168,0-9.699,0
		c-0.026-2.37-0.066-4.641-0.073-6.913c-0.012-4.332,0.041-8.664-0.017-12.994c-0.065-4.982-1.923-6.802-7.009-6.854
		c-5.164-0.053-10.329,0-15.493-0.021c-1.298-0.005-2.595-0.12-3.949-0.187C133.006,12.425,132.503,6.212,132,0
		c56.333,0,112.667,0,169,0c0,100,0,200,0,300C296,300,291,300,286,300z"/>
	<path fill-rule="evenodd" clip-rule="evenodd" fill="#FDFDFE" d="M216.657,154.578c-3.226,0-6.002,0-9.042,0
		c-0.747-3.41-1.34-6.922-5.91-6.624c-2.988,0.195-3.835,1.198-5.218,6.904c-2.45,0-5.065,0-7.681,0c-2.629,0-5.259,0-7.243,0
		c-0.76-0.674-0.903-0.77-1.003-0.898c-0.099-0.128-0.209-0.285-0.218-0.436c-0.104-1.653-0.269-3.307-0.269-4.96
		c-0.015-39.302-0.012-78.604-0.012-117.507c0.433-0.526,0.524-0.671,0.649-0.778c0.118-0.102,0.271-0.232,0.409-0.233
		c26.819-0.077,53.638-0.146,80.456-0.198c0.636-0.001,1.271,0.179,2.217,0.322c0,86.487,0,172.851,0,259.489
		c-12.079,0-23.976,0-36.364,0c-0.11-2.204-0.292-4.144-0.293-6.083c-0.016-42.156-0.012-84.313-0.013-126.468
		c0-1.333,0.052-2.669-0.021-3.998c-0.17-3.048-1.4-4.672-3.766-5.095c-2.599-0.464-4.837,0.787-5.921,3.438
		C217.049,152.35,216.944,153.355,216.657,154.578z M242.465,198.792c4.562-1.798,5.257-2.703,5.371-7.163
		c0.042-1.66,0.14-3.344-0.067-4.981c-0.421-3.32-2.103-4.748-5.259-4.751c-3.155-0.003-4.853,1.428-5.275,4.732
		c-0.21,1.637-0.036,3.32-0.085,4.981C237.038,195.42,238.512,198.028,242.465,198.792z M247.77,223.638c0.013,0,0.025,0,0.037,0
		c0-0.997,0.112-2.009-0.021-2.988c-0.431-3.184-2.914-5.567-5.52-5.405c-2.48,0.154-4.747,2.396-5.025,5.378
		c-0.216,2.306-0.239,4.674,0.038,6.968c0.373,3.083,2.038,4.415,4.958,4.503c3.246,0.097,4.977-1.232,5.498-4.474
		C247.944,226.323,247.77,224.967,247.77,223.638z M247.801,88.838c-0.003,0-0.006,0-0.009,0c0-1.156,0.038-2.314-0.019-3.467
		c-0.024-0.479-0.225-0.958-0.395-1.419c-0.968-2.632-2.76-3.986-5.112-3.869c-2.5,0.125-4.232,1.644-4.532,3.857
		c-0.41,3.034-0.477,6.232,0.029,9.238c0.465,2.758,2.58,3.941,5.017,3.815c2.382-0.123,4.613-2.139,4.992-4.691
		C247.94,91.171,247.801,89.994,247.801,88.838z M242.576,46.166c-2.802,0.409-4.801,1.918-5.185,4.67
		c-0.363,2.611-0.376,5.337-0.066,7.957c0.297,2.512,2.967,4.353,5.384,4.265c2.413-0.088,4.703-2.08,5.05-4.675
		c0.219-1.638,0.042-3.326,0.092-4.99C247.966,49.59,246.539,46.943,242.576,46.166z M236.894,122.317
		c0.302,1.806,0.396,3.466,0.881,5.003c0.699,2.219,2.247,3.628,4.73,3.626s4.046-1.411,4.735-3.63
		c1.046-3.369,1.069-6.818-0.191-10.145c-0.757-1.996-2.288-3.168-4.553-3.167s-3.818,1.17-4.527,3.18
		C237.381,118.853,237.222,120.671,236.894,122.317z M247.788,258.442c-0.019-0.001-0.037-0.001-0.056-0.001
		c0-1.496,0.203-3.028-0.045-4.482c-0.453-2.667-2.776-4.728-5.061-4.805c-2.223-0.075-4.843,1.937-5.205,4.565
		c-0.359,2.612-0.395,5.331-0.109,7.953c0.277,2.544,2.876,4.408,5.31,4.356c2.418-0.051,4.707-2.031,5.139-4.596
		C247.925,260.462,247.788,259.44,247.788,258.442z M237.206,156.103c-0.013,0-0.025,0-0.038,0c0,1-0.089,2.009,0.017,2.997
		c0.354,3.305,2.565,5.691,5.238,5.747c2.647,0.055,5.056-2.322,5.355-5.595c0.196-2.147,0.218-4.347-0.012-6.487
		c-0.306-2.855-2.776-4.878-5.439-4.797c-2.418,0.074-4.688,2.062-5.091,4.644C237.059,153.749,237.206,154.938,237.206,156.103z
		 M227.108,88.492c-0.004,0-0.008,0-0.012,0c0-1.161,0.07-2.327-0.014-3.481c-0.213-2.914-1.888-4.671-4.574-4.905
		c-1.99-0.174-4.924,1.655-5.163,3.867c-0.334,3.093-0.365,6.308,0.111,9.371c0.385,2.474,3.411,4.006,5.78,3.621
		c2.346-0.381,3.671-2.057,3.858-4.99C227.17,90.817,227.108,89.653,227.108,88.492z M227.109,122.158
		c0-0.995,0.053-1.994-0.01-2.985c-0.215-3.393-1.875-5.176-4.743-5.16c-2.597,0.015-5.004,2.17-5.232,5
		c-0.188,2.308-0.189,4.655,0.005,6.961c0.237,2.823,2.819,5.108,5.263,4.958c2.837-0.174,4.532-2.053,4.708-5.291
		C227.163,124.483,227.11,123.319,227.109,122.158z M206.992,122.799c-0.014,0-0.026,0-0.04,0c0-1.484,0.172-2.993-0.038-4.446
		c-0.363-2.508-2.337-4.216-4.667-4.33c-2.271-0.11-4.76,1.52-5.03,3.893c-0.334,2.928-0.321,5.941-0.048,8.879
		c0.204,2.198,2.896,4.158,4.924,4.134c2.576-0.03,4.499-1.808,4.875-4.67C207.116,125.125,206.992,123.954,206.992,122.799z
		 M227.084,55.196c0.003,0,0.006,0,0.01,0c0-1.32,0.098-2.649-0.021-3.958c-0.252-2.791-1.757-4.584-4.018-4.978
		c-2.199-0.383-5.143,1.327-5.53,3.919c-0.456,3.043-0.481,6.248-0.061,9.294c0.359,2.598,3.021,3.923,5.697,3.551
		c2.261-0.315,3.642-1.799,3.902-4.365C227.181,57.516,227.084,56.352,227.084,55.196z M201.167,46.066
		c-1.139,1.018-3.212,1.977-3.601,3.396c-0.993,3.623-1.264,7.495,0.248,11.117c0.929,2.226,2.763,2.908,5.355,2.419
		c2.192-0.413,3.567-1.76,3.78-3.964c0.19-1.963-0.048-3.967,0.117-5.936C207.379,49.368,205.811,47.105,201.167,46.066z
		 M206.94,88.814c0.021,0,0.04,0,0.061,0c0-1.331,0.133-2.679-0.028-3.991c-0.312-2.542-2.73-4.749-4.988-4.729
		c-2.047,0.017-4.633,2.048-4.841,4.31c-0.257,2.803-0.274,5.671,0.018,8.468c0.26,2.483,2.531,4.128,4.898,4.111
		c2.385-0.018,4.431-1.676,4.844-4.183C207.116,91.504,206.94,90.145,206.94,88.814z"/>
	<path fill-rule="evenodd" clip-rule="evenodd" fill="#FDFDFE" d="M39.115,104.25c28.147,0,55.737,0,83.574,0
		c0,61.869,0,123.456,0,185.373c-7.719,0-15.296,0-23.459,0c-0.049-1.903-0.133-3.835-0.141-5.768
		c-0.021-5.166,0.065-10.334-0.037-15.499c-0.079-3.982-1.455-5.355-5.5-5.396c-8.499-0.083-17-0.074-25.499-0.008
		c-4.39,0.035-5.88,1.547-5.977,6.092c-0.11,5.165-0.027,10.333-0.028,15.499c0,1.622,0,3.244,0,5.114c-7.9,0-15.292,0-22.933,0
		C39.115,227.781,39.115,166.197,39.115,104.25z M60.498,127.267c-2.822,0.384-4.743,1.989-5.13,4.687
		c-0.373,2.594-0.329,5.305-0.047,7.919c0.279,2.595,2.749,4.71,4.979,4.828c2.378,0.125,4.989-2.096,5.413-4.919
		c0.268-1.785,0.165-3.637,0.119-5.456C65.722,129.92,64.983,128.984,60.498,127.267z M65.789,169.908
		c0-1.16,0.137-2.34-0.027-3.477c-0.421-2.913-2.714-5.177-5.148-5.25c-2.374-0.071-5.008,2.188-5.324,5.024
		c-0.274,2.455-0.291,4.994,0.011,7.442c0.378,3.07,2.158,4.423,5.024,4.408c3.037-0.016,4.995-1.635,5.442-4.672
		C65.934,172.25,65.793,171.068,65.789,169.908z M65.777,204.02c-0.004,0-0.009,0-0.013-0.001c0-1.323,0.182-2.677-0.037-3.964
		c-0.514-3.026-2.739-5.019-5.299-4.985c-2.407,0.031-4.612,1.788-5.02,4.653c-0.369,2.593-0.376,5.298-0.096,7.906
		c0.267,2.492,2.881,4.396,5.261,4.368c2.391-0.028,4.738-1.986,5.171-4.51C65.937,206.362,65.777,205.177,65.777,204.02z
		 M66.164,237.55c-0.129-0.023-0.259-0.048-0.389-0.072c0-1.323,0.167-2.673-0.037-3.964c-0.362-2.297-2.54-4.256-4.689-4.482
		c-2.241-0.236-4.866,1.113-5.425,3.455c-0.843,3.532-1.117,7.221,0.486,10.67c0.806,1.734,2.273,2.783,4.338,2.804
		c2.063,0.02,3.639-0.97,4.364-2.722C65.547,241.46,65.736,239.455,66.164,237.55z M85.898,203.75c0.006,0,0.012,0,0.018,0
		c0-1.167,0.095-2.342-0.02-3.497c-0.256-2.597-2.409-4.936-4.628-5.16c-2.34-0.236-4.943,1.438-5.326,4.152
		c-0.407,2.885-0.42,5.931,0.042,8.802c0.466,2.9,2.367,4.067,4.888,3.943c2.407-0.119,4.646-2.168,4.999-4.746
		C86.028,206.1,85.898,204.916,85.898,203.75z M75.898,169.271c-0.003,0-0.006,0-0.009,0c0,1.33-0.082,2.666,0.017,3.989
		c0.235,3.154,1.703,4.645,4.584,4.792c2.892,0.148,4.872-1.178,5.266-4.136c0.349-2.615,0.297-5.321,0.091-7.962
		c-0.207-2.644-3.086-4.93-5.528-4.757c-2.537,0.18-4.207,2.076-4.411,5.081C75.841,167.272,75.898,168.274,75.898,169.271z
		 M105.988,169.87c0-1.164,0.087-2.335-0.018-3.489c-0.257-2.849-2.62-5.254-5.032-5.227c-2.426,0.026-4.767,2.429-4.935,5.305
		c-0.135,2.319-0.146,4.66,0.008,6.977c0.201,3.02,1.869,4.53,4.758,4.618c3.143,0.096,4.921-1.473,5.206-4.695
		C106.077,172.204,105.991,171.033,105.988,169.87z M96.02,203.635c-0.013,0-0.026,0-0.039,0c0,1.161-0.073,2.327,0.014,3.48
		c0.236,3.122,1.79,4.768,4.504,4.876c2.698,0.107,5.045-1.476,5.341-4.152c0.308-2.782,0.271-5.642,0.018-8.434
		c-0.204-2.244-2.761-4.272-4.807-4.318c-2.531-0.057-4.623,1.772-5.002,4.575C95.873,200.964,96.02,202.31,96.02,203.635z
		 M75.89,237.157c0,1.161-0.054,2.325,0.01,3.483c0.179,3.234,1.878,5.113,4.713,5.287c2.444,0.149,5.017-2.134,5.256-4.966
		c0.195-2.306,0.194-4.653,0.005-6.96c-0.232-2.834-2.641-4.986-5.234-4.992c-2.876-0.006-4.529,1.772-4.742,5.162
		C75.837,235.164,75.89,236.162,75.89,237.157z M100.942,127.332c-2.47,0.685-4.748,1.7-4.917,4.724
		c-0.148,2.637-0.188,5.302,0.018,7.931c0.206,2.626,1.982,4.031,4.663,4.13c2.946,0.109,4.905-1.311,5.217-4.093
		c0.219-1.961-0.042-3.972,0.107-5.946C106.315,130.313,104.631,128.135,100.942,127.332z M96.075,237.547c-0.013,0-0.025,0-0.038,0
		c0,1.318-0.153,2.659,0.033,3.952c0.366,2.547,2.25,4.263,4.592,4.428c2.227,0.156,4.973-1.908,5.208-4.384
		c0.263-2.776,0.262-5.62-0.025-8.394c-0.25-2.411-2.556-4.114-4.843-4.126c-2.321-0.013-4.476,1.654-4.881,4.081
		C95.878,234.548,96.075,236.063,96.075,237.547z M75.913,135.757c0,1.332-0.106,2.673,0.023,3.992c0.258,2.629,1.583,4,3.98,4.332
		c2.887,0.4,4.967-0.42,5.417-3.101c0.538-3.2,0.525-6.599,0.089-9.821c-0.342-2.523-3.073-4.045-5.152-3.666
		c-2.365,0.431-4.097,2.275-4.34,4.772C75.817,133.418,75.91,134.592,75.913,135.757z"/>
	<path fill-rule="evenodd" clip-rule="evenodd" fill="#FDFDFE" d="M216.59,289.7c-27.898,0-55.476,0-83.325,0
		c0-41.484,0-82.719,0-123.958c3.395-1.025,74.138-1.435,83.062-0.476C217.237,168.753,217.525,282.734,216.59,289.7z
		 M200.124,227.482c0-14.802,0.002-29.604-0.002-44.406c-0.001-1.33,0.312-2.796-0.143-3.955c-0.558-1.423-1.515-3.022-2.763-3.757
		c-1.59-0.937-3.474-0.513-5.067,0.822c-2.061,1.726-2.104,3.957-2.1,6.342c0.034,16.465,0.018,32.93,0.018,49.396
		c0,13.638-0.036,27.275,0.023,40.913c0.019,4.327,2.318,7.112,5.465,7.002c3.074-0.107,4.556-2.302,4.562-6.952
		C200.137,257.752,200.124,242.617,200.124,227.482z M174.914,279.755c4.875-1.909,5.135-2.194,5.138-7.165
		c0.019-30.122,0.012-60.244,0.002-90.366c0-1.16,0.044-2.357-0.217-3.472c-0.521-2.232-2.489-3.709-4.697-3.755
		c-2.213-0.047-4.226,1.341-4.832,3.573c-0.298,1.098-0.288,2.3-0.289,3.454c-0.014,30.288,0.029,60.577-0.063,90.865
		C169.944,276.637,171.263,278.922,174.914,279.755z M155.05,279.748c4.019-0.859,5.008-3.526,4.996-7.358
		c-0.097-29.956-0.052-59.912-0.059-89.869c0-1.163,0.081-2.358-0.15-3.482c-0.508-2.461-2.628-4.09-4.995-4.04
		c-2.423,0.051-4.344,1.701-4.807,4.236c-0.148,0.809-0.093,1.658-0.093,2.489c-0.004,30.456-0.015,60.912,0.009,91.367
		C149.954,277.541,150.298,277.885,155.05,279.748z"/>
	<path fill-rule="evenodd" clip-rule="evenodd" fill="#FDFDFE" d="M169.678,154.592c-12.124,0-24.038,0-35.928,0
		c-0.973-3.787-1.055-11.388-0.107-16.694c3.681,0,7.468,0.047,11.253-0.024c1.476-0.028,3.004-0.125,4.404-0.541
		c2.24-0.666,3.705-2.141,3.742-4.694c0.037-2.535-1.292-4.108-3.566-4.805c-1.398-0.429-2.918-0.594-4.389-0.626
		c-3.803-0.083-7.609-0.028-11.75-0.028c0-5.438,0-10.508,0-16.138c3.093-0.056,6.188-0.117,9.285-0.166
		c1.665-0.026,3.349,0.122,4.991-0.082c3.434-0.427,5.486-2.571,5.421-5.406c-0.062-2.632-2.006-4.63-5.179-5.142
		c-1.139-0.183-2.326-0.088-3.491-0.091c-3.491-0.009-6.982-0.003-10.627-0.003c-0.287-0.686-0.542-1.263-0.771-1.85
		c-1.566-4.026-1.93-4.381-6.14-4.398c-11.824-0.051-23.649-0.02-35.473-0.021c-1.621,0-3.242,0-5.136,0c0-12.438,0-24.351,0-36.247
		c3.488-0.995,76.046-1.329,83.461-0.358C169.678,89.597,169.678,121.96,169.678,154.592z M127.985,73.127c-1.996,0-3.992,0-5.988,0
		c-4.491,0.002-8.986-0.117-13.471,0.042c-3.992,0.142-5.67,1.909-5.629,5.417c0.043,3.62,1.793,5.207,6.325,5.234
		c12.308,0.073,24.616,0.058,36.924-0.02c1.439-0.009,3.015-0.361,4.283-1.022c3.181-1.661,3.56-5.418,1.024-7.947
		c-1.408-1.404-3.084-1.747-5.005-1.728C140.293,73.167,134.139,73.128,127.985,73.127z"/>
	<path fill-rule="evenodd" clip-rule="evenodd" fill="#FDFDFE" d="M149.679,30.121c0,5.014,0,10.114,0,15.191
		c-3.635,0.985-37.609,1.176-43.403,0.223c0-5.201,0-10.45,0-15.675C111.093,28.758,145.875,28.926,149.679,30.121z"/>
	<path fill-rule="evenodd" clip-rule="evenodd" fill="#FDFDFE" d="M89.048,289.952c-1.42-0.171-2.037-0.245-2.674-0.321
		c-1.57-4.626,2.066-11.09-5.066-13.353c-5.042,1.637-5.354,2.018-5.427,6.85c-0.03,1.987-0.005,3.975-0.005,6.308
		c-1.214,0.122-2.227,0.225-3.525,0.356c0-5.63,0-10.883,0-16.471c5.402,0,10.65,0,16.177,0c1.063,2.578,0.365,5.419,0.493,8.17
		C89.144,284.119,89.048,286.757,89.048,289.952z"/>
	<path fill-rule="evenodd" clip-rule="evenodd" fill="#7CBAE4" d="M242.465,198.792c-3.953-0.764-5.427-3.372-5.315-7.182
		c0.049-1.661-0.125-3.345,0.085-4.981c0.423-3.305,2.12-4.735,5.275-4.732c3.156,0.003,4.838,1.431,5.259,4.751
		c0.207,1.638,0.109,3.321,0.067,4.981C247.722,196.089,247.026,196.994,242.465,198.792z"/>
	<path fill-rule="evenodd" clip-rule="evenodd" fill="#7CBAE4" d="M247.77,223.638c0,1.329,0.175,2.686-0.034,3.981
		c-0.521,3.241-2.252,4.57-5.498,4.474c-2.92-0.088-4.585-1.42-4.958-4.503c-0.277-2.294-0.254-4.662-0.038-6.968
		c0.278-2.982,2.545-5.224,5.025-5.378c2.605-0.162,5.089,2.222,5.52,5.405c0.133,0.979,0.021,1.991,0.021,2.988
		C247.795,223.638,247.782,223.638,247.77,223.638z"/>
	<path fill-rule="evenodd" clip-rule="evenodd" fill="#7CBAE4" d="M247.801,88.838c0,1.156,0.14,2.333-0.028,3.464
		c-0.379,2.552-2.61,4.568-4.992,4.691c-2.437,0.126-4.552-1.057-5.017-3.815c-0.506-3.006-0.439-6.204-0.029-9.238
		c0.3-2.214,2.032-3.733,4.532-3.857c2.353-0.117,4.145,1.237,5.112,3.869c0.17,0.461,0.37,0.94,0.395,1.419
		c0.057,1.153,0.019,2.311,0.019,3.467C247.795,88.838,247.798,88.838,247.801,88.838z"/>
	<path fill-rule="evenodd" clip-rule="evenodd" fill="#7CBAE4" d="M242.576,46.166c3.963,0.777,5.39,3.424,5.274,7.226
		c-0.05,1.664,0.127,3.353-0.092,4.99c-0.347,2.595-2.637,4.587-5.05,4.675c-2.417,0.088-5.087-1.753-5.384-4.265
		c-0.31-2.619-0.297-5.346,0.066-7.957C237.775,48.084,239.774,46.575,242.576,46.166z"/>
	<path fill-rule="evenodd" clip-rule="evenodd" fill="#7CBAE4" d="M236.894,122.317c0.328-1.646,0.487-3.464,1.075-5.132
		c0.709-2.009,2.263-3.178,4.527-3.18s3.796,1.171,4.553,3.167c1.261,3.326,1.237,6.775,0.191,10.145
		c-0.689,2.219-2.252,3.628-4.735,3.63s-4.031-1.407-4.73-3.626C237.29,125.783,237.195,124.123,236.894,122.317z"/>
	<path fill-rule="evenodd" clip-rule="evenodd" fill="#7CBAE4" d="M247.788,258.442c0,0.998,0.137,2.02-0.027,2.991
		c-0.432,2.564-2.721,4.545-5.139,4.596c-2.434,0.052-5.032-1.813-5.31-4.356c-0.285-2.622-0.25-5.341,0.109-7.953
		c0.362-2.629,2.982-4.641,5.205-4.565c2.284,0.077,4.607,2.138,5.061,4.805c0.248,1.454,0.045,2.986,0.045,4.482
		C247.751,258.441,247.77,258.441,247.788,258.442z"/>
	<path fill-rule="evenodd" clip-rule="evenodd" fill="#7CBAE4" d="M237.206,156.103c0-1.165-0.147-2.354,0.03-3.491
		c0.402-2.582,2.673-4.57,5.091-4.644c2.663-0.081,5.134,1.942,5.439,4.797c0.229,2.141,0.208,4.34,0.012,6.487
		c-0.3,3.272-2.708,5.649-5.355,5.595c-2.673-0.056-4.885-2.442-5.238-5.747c-0.105-0.988-0.017-1.997-0.017-2.997
		C237.181,156.103,237.193,156.103,237.206,156.103z"/>
	<path fill-rule="evenodd" clip-rule="evenodd" fill="#7CBAE4" d="M227.108,88.492c0,1.161,0.062,2.326-0.013,3.482
		c-0.188,2.934-1.513,4.609-3.858,4.99c-2.369,0.385-5.396-1.147-5.78-3.621c-0.477-3.063-0.445-6.278-0.111-9.371
		c0.239-2.211,3.173-4.041,5.163-3.867c2.687,0.234,4.361,1.992,4.574,4.905c0.084,1.155,0.014,2.321,0.014,3.481
		C227.101,88.492,227.104,88.492,227.108,88.492z"/>
	<path fill-rule="evenodd" clip-rule="evenodd" fill="#7CBAE4" d="M227.109,122.158c0.001,1.162,0.054,2.326-0.01,3.483
		c-0.176,3.238-1.871,5.117-4.708,5.291c-2.443,0.15-5.025-2.135-5.263-4.958c-0.194-2.306-0.192-4.654-0.005-6.961
		c0.229-2.829,2.636-4.985,5.232-5c2.868-0.017,4.528,1.767,4.743,5.16C227.162,120.164,227.109,121.163,227.109,122.158z"/>
	<path fill-rule="evenodd" clip-rule="evenodd" fill="#7CBAE4" d="M206.992,122.799c0,1.155,0.124,2.326-0.024,3.46
		c-0.376,2.862-2.299,4.64-4.875,4.67c-2.027,0.024-4.72-1.936-4.924-4.134c-0.273-2.938-0.286-5.951,0.048-8.879
		c0.271-2.373,2.759-4.003,5.03-3.893c2.33,0.113,4.304,1.821,4.667,4.33c0.21,1.453,0.038,2.962,0.038,4.446
		C206.966,122.799,206.979,122.799,206.992,122.799z"/>
	<path fill-rule="evenodd" clip-rule="evenodd" fill="#7CBAE4" d="M227.084,55.196c0,1.155,0.097,2.32-0.02,3.463
		c-0.261,2.566-1.642,4.05-3.902,4.365c-2.676,0.373-5.338-0.953-5.697-3.551c-0.421-3.046-0.396-6.251,0.061-9.294
		c0.388-2.592,3.331-4.302,5.53-3.919c2.261,0.394,3.766,2.187,4.018,4.978c0.118,1.31,0.021,2.639,0.021,3.958
		C227.09,55.196,227.087,55.196,227.084,55.196z"/>
	<path fill-rule="evenodd" clip-rule="evenodd" fill="#7CBAE4" d="M201.167,46.066c4.644,1.039,6.212,3.301,5.9,7.033
		c-0.165,1.968,0.073,3.972-0.117,5.936c-0.213,2.205-1.588,3.552-3.78,3.964c-2.593,0.488-4.427-0.194-5.355-2.419
		c-1.512-3.623-1.241-7.495-0.248-11.117C197.955,48.043,200.028,47.084,201.167,46.066z"/>
	<path fill-rule="evenodd" clip-rule="evenodd" fill="#7CBAE4" d="M206.94,88.814c0,1.331,0.176,2.689-0.037,3.985
		c-0.413,2.507-2.459,4.165-4.844,4.183c-2.367,0.018-4.639-1.627-4.898-4.111c-0.292-2.797-0.274-5.665-0.018-8.468
		c0.208-2.262,2.794-4.292,4.841-4.31c2.258-0.019,4.677,2.187,4.988,4.729c0.161,1.312,0.028,2.66,0.028,3.991
		C206.98,88.814,206.961,88.814,206.94,88.814z"/>
	<path fill-rule="evenodd" clip-rule="evenodd" fill="#7CBAE4" d="M60.498,127.267c4.485,1.717,5.224,2.653,5.334,7.059
		c0.046,1.819,0.149,3.671-0.119,5.456c-0.424,2.823-3.035,5.043-5.413,4.919c-2.23-0.117-4.7-2.233-4.979-4.828
		c-0.282-2.615-0.326-5.326,0.047-7.919C55.754,129.256,57.676,127.65,60.498,127.267z"/>
	<path fill-rule="evenodd" clip-rule="evenodd" fill="#7CBAE4" d="M65.791,169.908c0.002,1.16,0.143,2.342-0.025,3.477
		c-0.447,3.037-2.405,4.656-5.442,4.672c-2.866,0.015-4.646-1.338-5.024-4.408c-0.301-2.448-0.285-4.987-0.011-7.442
		c0.316-2.837,2.951-5.096,5.324-5.024c2.434,0.073,4.727,2.337,5.148,5.25C65.926,167.568,65.789,168.748,65.791,169.908z"/>
	<path fill-rule="evenodd" clip-rule="evenodd" fill="#7CBAE4" d="M65.777,204.02c0,1.157,0.16,2.343-0.033,3.468
		c-0.433,2.523-2.781,4.481-5.171,4.51c-2.38,0.028-4.994-1.876-5.261-4.368c-0.28-2.608-0.273-5.313,0.096-7.906
		c0.408-2.865,2.613-4.622,5.02-4.653c2.56-0.033,4.786,1.959,5.299,4.985c0.218,1.287,0.037,2.641,0.037,3.964
		C65.768,204.02,65.772,204.02,65.777,204.02z"/>
	<path fill-rule="evenodd" clip-rule="evenodd" fill="#7CBAE4" d="M66.164,237.55c-0.428,1.905-0.616,3.91-1.352,5.688
		c-0.725,1.752-2.301,2.741-4.364,2.722c-2.064-0.021-3.532-1.069-4.338-2.804c-1.603-3.449-1.329-7.138-0.486-10.67
		c0.559-2.342,3.184-3.691,5.425-3.455c2.149,0.227,4.327,2.186,4.689,4.482c0.204,1.291,0.037,2.641,0.037,3.964
		C65.904,237.502,66.034,237.526,66.164,237.55z"/>
	<path fill-rule="evenodd" clip-rule="evenodd" fill="#7CBAE4" d="M85.898,203.75c0,1.166,0.13,2.35-0.026,3.494
		c-0.354,2.578-2.592,4.627-4.999,4.746c-2.521,0.124-4.422-1.043-4.888-3.943c-0.462-2.871-0.449-5.917-0.042-8.802
		c0.383-2.714,2.986-4.389,5.326-4.152c2.219,0.225,4.372,2.563,4.628,5.16c0.114,1.155,0.02,2.33,0.02,3.497
		C85.91,203.75,85.904,203.75,85.898,203.75z"/>
	<path fill-rule="evenodd" clip-rule="evenodd" fill="#7CBAE4" d="M75.898,169.271c0-0.997-0.057-1.999,0.01-2.992
		c0.204-3.005,1.875-4.901,4.411-5.081c2.441-0.173,5.321,2.113,5.528,4.757c0.206,2.641,0.257,5.347-0.091,7.962
		c-0.394,2.958-2.375,4.284-5.266,4.136c-2.882-0.147-4.35-1.638-4.584-4.792c-0.099-1.323-0.017-2.659-0.017-3.989
		C75.892,169.271,75.895,169.271,75.898,169.271z"/>
	<path fill-rule="evenodd" clip-rule="evenodd" fill="#7CBAE4" d="M105.989,169.87c0.002,1.163,0.087,2.334-0.014,3.488
		c-0.285,3.223-2.063,4.791-5.206,4.695c-2.889-0.088-4.557-1.599-4.758-4.618c-0.155-2.316-0.144-4.657-0.008-6.977
		c0.168-2.876,2.508-5.278,4.935-5.305c2.413-0.027,4.775,2.378,5.032,5.227C106.075,167.535,105.988,168.706,105.989,169.87z"/>
	<path fill-rule="evenodd" clip-rule="evenodd" fill="#7CBAE4" d="M96.02,203.635c0-1.325-0.146-2.671,0.03-3.973
		c0.379-2.803,2.471-4.632,5.002-4.575c2.046,0.046,4.604,2.074,4.807,4.318c0.253,2.792,0.29,5.651-0.018,8.434
		c-0.296,2.677-2.644,4.26-5.341,4.152c-2.714-0.108-4.269-1.754-4.504-4.876c-0.087-1.153-0.014-2.319-0.014-3.48
		C95.994,203.635,96.006,203.635,96.02,203.635z"/>
	<path fill-rule="evenodd" clip-rule="evenodd" fill="#7CBAE4" d="M75.89,237.157c0-0.995-0.053-1.993,0.009-2.985
		c0.212-3.39,1.866-5.168,4.742-5.162c2.593,0.006,5.001,2.158,5.234,4.992c0.189,2.307,0.19,4.654-0.005,6.96
		c-0.239,2.832-2.813,5.115-5.256,4.966c-2.834-0.174-4.534-2.053-4.713-5.287C75.836,239.482,75.89,238.318,75.89,237.157z"/>
	<path fill-rule="evenodd" clip-rule="evenodd" fill="#7CBAE4" d="M100.942,127.332c3.689,0.803,5.374,2.981,5.088,6.747
		c-0.149,1.974,0.112,3.985-0.107,5.946c-0.312,2.782-2.271,4.202-5.217,4.093c-2.681-0.099-4.458-1.504-4.663-4.13
		c-0.206-2.629-0.166-5.294-0.018-7.931C96.194,129.032,98.472,128.017,100.942,127.332z"/>
	<path fill-rule="evenodd" clip-rule="evenodd" fill="#7CBAE4" d="M96.075,237.547c0-1.483-0.197-2.999,0.044-4.442
		c0.405-2.427,2.561-4.094,4.881-4.081c2.288,0.012,4.593,1.715,4.843,4.126c0.287,2.773,0.288,5.617,0.025,8.394
		c-0.235,2.476-2.98,4.54-5.208,4.384c-2.342-0.165-4.226-1.881-4.592-4.428c-0.186-1.293-0.033-2.634-0.033-3.952
		C96.05,237.547,96.063,237.547,96.075,237.547z"/>
	<path fill-rule="evenodd" clip-rule="evenodd" fill="#7CBAE4" d="M75.912,135.757c-0.001-1.165-0.095-2.339,0.018-3.493
		c0.243-2.498,1.975-4.341,4.34-4.772c2.079-0.379,4.811,1.143,5.152,3.666c0.437,3.223,0.449,6.621-0.089,9.821
		c-0.45,2.681-2.53,3.501-5.417,3.101c-2.397-0.332-3.722-1.702-3.98-4.332C75.807,138.431,75.913,137.089,75.912,135.757z"/>
	<path fill-rule="evenodd" clip-rule="evenodd" fill="#7CBAE4" d="M200.124,227.482c0,15.135,0.013,30.27-0.007,45.404
		c-0.006,4.65-1.487,6.845-4.562,6.952c-3.146,0.11-5.446-2.675-5.465-7.002c-0.06-13.638-0.023-27.275-0.023-40.913
		c0-16.466,0.017-32.931-0.018-49.396c-0.005-2.385,0.039-4.616,2.1-6.342c1.594-1.335,3.478-1.759,5.067-0.822
		c1.248,0.734,2.205,2.334,2.763,3.757c0.454,1.159,0.142,2.625,0.143,3.955C200.126,197.879,200.124,212.681,200.124,227.482z"/>
	<path fill-rule="evenodd" clip-rule="evenodd" fill="#7CBAE4" d="M174.914,279.755c-3.651-0.833-4.97-3.118-4.958-6.865
		c0.092-30.288,0.049-60.577,0.063-90.865c0.001-1.154-0.009-2.356,0.289-3.454c0.606-2.232,2.619-3.62,4.832-3.573
		c2.208,0.046,4.177,1.522,4.697,3.755c0.261,1.114,0.217,2.312,0.217,3.472c0.01,30.122,0.017,60.244-0.002,90.366
		C180.049,277.561,179.789,277.846,174.914,279.755z"/>
	<path fill-rule="evenodd" clip-rule="evenodd" fill="#7CBAE4" d="M155.049,279.747c-4.751-1.862-5.095-2.206-5.098-6.656
		c-0.024-30.455-0.013-60.911-0.009-91.367c0-0.831-0.055-1.681,0.093-2.489c0.462-2.535,2.384-4.186,4.807-4.236
		c2.367-0.05,4.487,1.579,4.995,4.04c0.231,1.124,0.15,2.319,0.15,3.482c0.007,29.957-0.038,59.913,0.059,89.869
		C160.058,276.222,159.068,278.889,155.049,279.747z"/>
	<path fill-rule="evenodd" clip-rule="evenodd" fill="#7CBAE4" d="M127.985,73.127c6.154,0,12.309,0.04,18.462-0.023
		c1.921-0.02,3.597,0.324,5.005,1.728c2.536,2.528,2.157,6.286-1.024,7.947c-1.268,0.662-2.844,1.013-4.283,1.022
		c-12.308,0.078-24.616,0.093-36.924,0.02c-4.532-0.027-6.282-1.614-6.325-5.234c-0.041-3.508,1.637-5.275,5.629-5.417
		c4.485-0.159,8.98-0.041,13.471-0.042C123.993,73.127,125.989,73.127,127.985,73.127z"/>
</g>
</svg>
