<?xml version="1.0" encoding="utf-8"?>
<!-- Generator: Adobe Illustrator 16.0.0, SVG Export Plug-In . SVG Version: 6.00 Build 0)  -->
<!DOCTYPE svg PUBLIC "-//W3C//DTD SVG 1.1//EN" "http://www.w3.org/Graphics/SVG/1.1/DTD/svg11.dtd">
<svg version="1.1" id="Layer_1" xmlns="http://www.w3.org/2000/svg" xmlns:xlink="http://www.w3.org/1999/xlink" x="0px" y="0px"
	 width="300px" height="300px" viewBox="0 0 300 300" enable-background="new 0 0 300 300" xml:space="preserve">
<g>
	<path fill-rule="evenodd" clip-rule="evenodd" fill="#E378AD" d="M151.961,299.887c-50.641,0-101.281,0-151.961,0
		C0,199.965,0,100.043,0,0.004c99.96,0,199.961,0,299.961-0.004c0,69.626,0,139.256,0,208.887c-0.713,1.805-1.541,3.573-2.123,5.42
		c-4.504,14.316-12.971,20.582-27.912,20.582c-36.254,0-72.508,0-108.762,0c-1.924,0-3.848,0-6.201,0c0,2.563,0,4.362,0,6.162
		c0,17.13-0.047,34.259,0.041,51.388C155.021,295.455,154.535,298.038,151.961,299.887z M182.785,164.829c1.451,0,2.902,0,4.354,0
		c8.549,0,17.098,0,25.646,0c1.451,0,2.902,0,4.354,0c8.549,0,17.098,0,25.646,0c1.451,0,2.902,0,4.354,0
		c8.547-0.001,17.096-0.001,25.643-0.002c1.404,0.017,2.807,0.033,4.211,0.05c4.223,1.712,8.443,3.425,12.949,5.253
		c0-5.889,0.125-11.861-0.109-17.82c-0.045-1.115-1.363-2.363-2.373-3.222c-2.916-2.48-3.664-5.745-0.715-7.489
		c3.602-2.13,3.199-4.991,3.215-8.079c0.014-2.666-0.004-5.331,0.004-7.997c0.01-2.78,0.416-5.358-3.055-7.049
		c-2.656-1.294-2.877-5.28-0.328-6.732c4.018-2.29,3.357-5.616,3.379-9.004c0.018-2.999-0.049-5.999,0.02-8.996
		c0.045-2.098-0.309-3.557-2.473-4.84c-3.225-1.911-3.691-5.63-0.721-7.347c3.678-2.126,3.143-5.031,3.17-8.099
		c0.029-3.332-0.053-6.665,0.025-9.995c0.047-1.957-0.402-3.23-2.293-4.431c-3.436-2.182-3.857-5.664-0.711-7.706
		c2.992-1.943,3.074-4.291,3.004-7.15c-0.082-3.33-0.049-6.664-0.008-9.995c0.027-2.2-0.086-3.918-2.518-5.319
		c-3.232-1.861-3.607-5.514-0.645-7.396c5.072-3.222,2.721-7.308,2.766-11.242c-6.92-0.64-6.92-0.64-11.229,3.165
		c-2.16,1.908-5.705,2.059-7.012-0.47c-1.73-3.35-4.256-3.078-7.064-3.043c-3.332,0.042-6.666,0.063-9.996-0.008
		c-2.236-0.048-3.898,0.186-5.301,2.546c-1.801,3.026-5.906,3.404-7.514,0.622c-1.939-3.354-4.541-3.206-7.514-3.162
		c-3.33,0.049-6.664,0.05-9.994-0.001c-2.064-0.032-3.572,0.207-4.879,2.396c-1.84,3.085-6.021,3.635-7.457,0.884
		c-2.002-3.838-4.936-3.23-7.992-3.26c-3.332-0.032-6.664,0.041-9.996-0.022c-1.926-0.037-3.227,0.373-4.441,2.254
		c-2.125,3.285-6.107,3.784-7.822,0.804c-1.846-3.208-4.23-3.106-7.064-3.058c-3.664,0.062-7.33-0.044-10.992,0.058
		c-1.076,0.03-2.453,0.188-3.154,0.854c-3.594,3.41-6.545,7.091-5.277,12.695c0.502,2.219,0.123,4.647,0.07,6.978
		c-0.049,2.216,0.125,3.85,2.613,5.206c3.223,1.758,3.453,6.172,0.383,7.845c-3.096,1.687-3.02,3.919-2.994,6.586
		c0.037,3.665,0.043,7.33,0,10.995c-0.023,1.905,0.307,3.197,2.305,4.359c3.291,1.915,3.895,6.274,0.959,7.798
		c-3.848,1.998-3.211,4.931-3.246,7.978c-0.035,3.165,0.02,6.331-0.016,9.496c-0.023,2.034,0.111,3.542,2.408,4.813
		c3.285,1.816,3.732,6.182,0.764,7.824c-3.459,1.914-3.193,4.552-3.17,7.5c0.023,2.832-0.02,5.664,0.014,8.496
		c0.031,2.57-0.395,4.948,2.902,6.574c2.959,1.459,3.041,6.022,0.166,7.522c-3.363,1.754-3.113,4.229-3.084,7.04
		c0.037,3.665-0.055,7.332,0.055,10.994c0.031,1.064,0.309,2.302,0.92,3.13c1.121,1.52,3.33,2.624,3.688,4.215
		c0.395,1.764-0.775,3.878-1.305,6.005C166.48,164.829,174.633,164.829,182.785,164.829z M144.735,10.337
		c-45.107,0-89.786,0-134.393,0c0,93.333,0,186.217,0,279.22c44.942,0,89.503,0,134.157,0c0-18.349,0-36.368,0-54.67
		c-4.612,0-8.772-0.091-12.927,0.02c-8.224,0.219-14.431-3.427-19.103-9.912c-9.993-13.872-10.069-36.063-0.201-49.955
		c4.743-6.678,11.046-10.425,19.472-10.177c4.259,0.125,8.525,0.021,12.995,0.021C144.735,113.017,144.735,61.908,144.735,10.337z
		 M256.918,174.888c-2.248,0-3.717,0-5.186,0c-39.615,0.001-79.232,0.105-118.847-0.104c-6.599-0.034-10.868,2.819-13.667,8.171
		c-5.889,11.26-5.846,22.722,0.05,33.967c2.818,5.377,7.172,8.101,13.732,8.066c39.448-0.207,78.899-0.103,118.349-0.103
		c1.607,0,3.215,0,5.502,0C247.771,208.16,247.6,191.947,256.918,174.888z M290.02,199.321c-0.318-7.194-1.777-14.446-7.152-20.283
		c-5.115-5.554-10.797-5.502-15.889-0.033c-9.146,9.829-9.389,31.122-0.465,41.204c5.604,6.33,11.906,6.239,17.221-0.398
		C288.412,213.969,289.855,207.052,290.02,199.321z"/>
	<path fill-rule="evenodd" clip-rule="evenodd" fill="#FEFEFE" d="M151.961,299.887c2.574-1.849,3.061-4.432,3.043-7.448
		c-0.088-17.129-0.041-34.258-0.041-51.388c0-1.8,0-3.6,0-6.162c2.354,0,4.277,0,6.201,0c36.254,0,72.508,0,108.762,0
		c14.941,0,23.408-6.266,27.912-20.582c0.582-1.847,1.41-3.615,2.123-5.42c0,30.333,0,60.667,0,91
		C250.627,299.887,201.293,299.887,151.961,299.887z"/>
	<path fill-rule="evenodd" clip-rule="evenodd" fill="#FEFEFE" d="M144.735,10.337c0,51.571,0,102.679,0,154.547
		c-4.47,0-8.735,0.104-12.995-0.021c-8.426-0.248-14.729,3.499-19.472,10.177c-9.869,13.893-9.792,36.083,0.201,49.955
		c4.671,6.485,10.879,10.131,19.103,9.912c4.155-0.11,8.315-0.02,12.927-0.02c0,18.302,0,36.321,0,54.67
		c-44.654,0-89.215,0-134.157,0c0-93.003,0-185.887,0-279.22C54.949,10.337,99.628,10.337,144.735,10.337z"/>
	<path fill-rule="evenodd" clip-rule="evenodd" fill="#FEFDFD" d="M272.781,164.827c-8.547,0.001-17.096,0.001-25.643,0.002
		c3.201-3.766,3.682-6.533,1.326-8.651c-2.201-1.98-4.582-1.805-6.744,0.09c-2.568,2.252-2.215,4.715,1.064,8.562
		c-8.549,0-17.098,0-25.646,0c3.201-3.766,3.682-6.533,1.326-8.651c-2.201-1.98-4.582-1.805-6.744,0.09
		c-2.568,2.252-2.215,4.715,1.064,8.562c-8.549,0-17.098,0-25.646,0c3.199-3.764,3.68-6.534,1.326-8.651
		c-2.203-1.98-4.584-1.805-6.744,0.09c-2.568,2.252-2.215,4.715,1.064,8.562c-8.152,0-16.305,0-24.477,0
		c0.529-2.127,1.699-4.241,1.305-6.005c-0.357-1.591-2.566-2.695-3.688-4.215c-0.611-0.828-0.889-2.065-0.92-3.13
		c-0.109-3.662-0.018-7.33-0.055-10.994c-0.029-2.81-0.279-5.285,3.084-7.04c2.875-1.5,2.793-6.063-0.166-7.522
		c-3.297-1.625-2.871-4.004-2.902-6.574c-0.033-2.832,0.01-5.665-0.014-8.496c-0.023-2.948-0.289-5.586,3.17-7.5
		c2.969-1.642,2.521-6.007-0.764-7.824c-2.297-1.271-2.432-2.779-2.408-4.813c0.035-3.165-0.02-6.331,0.016-9.496
		c0.035-3.047-0.602-5.98,3.246-7.978c2.936-1.524,2.332-5.883-0.959-7.798c-1.998-1.162-2.328-2.454-2.305-4.359
		c0.043-3.665,0.037-7.33,0-10.995c-0.025-2.667-0.102-4.899,2.994-6.586c3.07-1.673,2.84-6.087-0.383-7.845
		c-2.488-1.356-2.662-2.99-2.613-5.206c0.053-2.331,0.432-4.759-0.07-6.978c-1.268-5.604,1.684-9.285,5.277-12.695
		c0.701-0.666,2.078-0.824,3.154-0.854c3.662-0.102,7.328,0.004,10.992-0.058c2.834-0.048,5.219-0.15,7.064,3.058
		c1.715,2.98,5.697,2.48,7.822-0.804c1.215-1.881,2.516-2.291,4.441-2.254c3.332,0.063,6.664-0.01,9.996,0.022
		c3.057,0.03,5.99-0.579,7.992,3.26c1.436,2.751,5.617,2.202,7.457-0.884c1.307-2.189,2.814-2.428,4.879-2.396
		c3.33,0.052,6.664,0.051,9.994,0.001c2.973-0.044,5.574-0.192,7.514,3.162c1.607,2.782,5.713,2.404,7.514-0.622
		c1.402-2.361,3.064-2.594,5.301-2.546c3.33,0.071,6.664,0.049,9.996,0.008c2.809-0.035,5.334-0.307,7.064,3.043
		c1.307,2.529,4.852,2.378,7.012,0.47c4.309-3.805,4.309-3.805,11.229-3.165c-0.045,3.934,2.307,8.02-2.766,11.242
		c-2.963,1.882-2.588,5.535,0.645,7.396c2.432,1.4,2.545,3.119,2.518,5.319c-0.041,3.331-0.074,6.665,0.008,9.995
		c0.07,2.86-0.012,5.207-3.004,7.15c-3.146,2.042-2.725,5.523,0.711,7.706c1.891,1.201,2.34,2.474,2.293,4.431
		c-0.078,3.33,0.004,6.664-0.025,9.995c-0.027,3.068,0.508,5.973-3.17,8.099c-2.971,1.717-2.504,5.436,0.721,7.347
		c2.164,1.283,2.518,2.742,2.473,4.84c-0.068,2.997-0.002,5.997-0.02,8.996c-0.021,3.388,0.639,6.714-3.379,9.004
		c-2.549,1.452-2.328,5.438,0.328,6.732c3.471,1.69,3.064,4.269,3.055,7.049c-0.008,2.666,0.01,5.331-0.004,7.997
		c-0.016,3.088,0.387,5.948-3.215,8.079c-2.949,1.744-2.201,5.009,0.715,7.489c1.01,0.859,2.328,2.107,2.373,3.222
		c0.234,5.959,0.109,11.932,0.109,17.82c-4.506-1.828-8.727-3.541-12.949-5.253c3.262-3.596,3.781-6.247,1.676-8.534
		c-1.836-1.994-5.006-1.996-7.057-0.002C269.193,158.694,269.512,161.008,272.781,164.827z M264.936,24.478
		c-0.15-2.426-1.418-4.308-4.396-4.584c-2.895-0.269-5.635,2.227-5.494,5.065c0.146,2.91,1.881,4.508,4.711,4.751
		C262.516,29.947,264.82,27.694,264.936,24.478z M184.846,44.737c2.771,0.065,5.096-2.134,5.057-4.947
		c-0.039-2.881-1.504-4.659-4.455-4.902c-2.682-0.221-5.221,2.031-5.424,4.668C179.814,42.243,182.076,44.672,184.846,44.737z
		 M215.625,34.874c-3.178,0.011-5.563,2.308-5.604,4.963c-0.045,2.705,2.338,4.992,5.102,4.9c2.768-0.092,4.973-2.423,4.785-5.226
		C219.713,36.618,218.096,35.044,215.625,34.874z M249.922,39.245c-0.254-2.425-1.631-4.221-4.613-4.359
		c-2.906-0.135-5.555,2.49-5.26,5.302c0.301,2.875,2.082,4.424,4.936,4.525C247.76,44.81,249.947,42.473,249.922,39.245z
		 M275.115,44.737c2.768-0.088,4.984-2.415,4.789-5.217c-0.197-2.873-1.758-4.562-4.727-4.63c-2.719-0.063-5.107,2.283-5.154,4.938
		C269.975,42.534,272.352,44.825,275.115,44.737z M174.928,54.362c-0.189-2.434-1.529-4.263-4.502-4.478
		c-2.889-0.209-5.594,2.367-5.379,5.187c0.221,2.896,1.98,4.466,4.822,4.639C172.635,59.88,174.883,57.584,174.928,54.362z
		 M200.051,59.737c2.783-0.052,5.01-2.332,4.854-5.151c-0.158-2.875-1.693-4.587-4.66-4.697c-2.711-0.1-5.137,2.226-5.221,4.875
		C194.936,57.485,197.266,59.79,200.051,59.737z M234.924,54.283c-0.232-2.426-1.594-4.235-4.574-4.397
		c-2.898-0.158-5.57,2.454-5.303,5.264c0.275,2.882,2.049,4.438,4.9,4.562C232.729,59.833,234.926,57.52,234.924,54.283z
		 M259.971,59.738c2.783-0.007,5.043-2.251,4.934-5.073c-0.109-2.88-1.621-4.614-4.58-4.777c-2.697-0.148-5.172,2.153-5.301,4.795
		C254.891,57.394,257.191,59.745,259.971,59.738z M185.188,74.734c2.762-0.128,4.955-2.491,4.719-5.285
		c-0.244-2.866-1.828-4.534-4.799-4.559c-2.723-0.023-5.078,2.354-5.086,5.008C180.016,72.615,182.416,74.862,185.188,74.734z
		 M219.938,69.523c-0.135-2.432-1.385-4.327-4.361-4.625c-2.895-0.29-5.648,2.181-5.531,5.022c0.119,2.914,1.848,4.52,4.674,4.786
		C217.475,74.965,219.799,72.727,219.938,69.523z M244.926,74.732c2.785,0.02,5.063-2.2,4.979-5.024
		c-0.084-2.882-1.582-4.628-4.537-4.82c-2.688-0.175-5.188,2.111-5.344,4.749C239.863,72.339,242.146,74.712,244.926,74.732z
		 M275.422,64.862c-3.15,0.121-5.461,2.51-5.4,5.154c0.063,2.708,2.531,4.913,5.283,4.717c2.756-0.197,4.881-2.612,4.596-5.402
		C279.605,66.439,277.914,64.943,275.422,64.862z M174.912,84.13c-0.332-2.449-1.762-4.195-4.75-4.245
		c-2.721-0.045-5.102,2.299-5.141,4.956c-0.041,2.711,2.336,4.986,5.109,4.891C172.898,89.636,175.033,87.31,174.912,84.13z
		 M204.932,84.447c-0.16-2.428-1.447-4.296-4.424-4.555c-2.895-0.252-5.625,2.263-5.463,5.097c0.166,2.904,1.906,4.496,4.74,4.718
		C202.551,89.923,204.838,87.665,204.932,84.447z M234.912,84.112c-0.348-2.454-1.785-4.193-4.775-4.226
		c-2.721-0.029-5.09,2.327-5.115,4.982c-0.023,2.708,2.369,4.975,5.137,4.863C232.922,89.621,235.047,87.278,234.912,84.112z
		 M264.934,84.454c-0.16-2.441-1.455-4.305-4.43-4.563c-2.895-0.251-5.621,2.269-5.457,5.103c0.168,2.906,1.91,4.495,4.744,4.713
		C262.557,89.92,264.842,87.657,264.934,84.454z M189.922,99.845c0.074-2.712-1.785-4.805-4.418-4.969
		c-2.898-0.181-5.623,2.286-5.457,5.119c0.168,2.905,1.912,4.495,4.746,4.715C187.555,104.925,189.842,102.657,189.922,99.845z
		 M215.719,94.881c-3.158-0.052-5.598,2.207-5.697,4.856c-0.102,2.715,2.223,5.039,5.002,5.001s5.012-2.308,4.883-5.127
		C219.775,96.711,218.186,95.111,215.719,94.881z M244.971,104.738c2.783-0.007,5.043-2.25,4.934-5.073
		c-0.109-2.88-1.621-4.614-4.58-4.777c-2.697-0.149-5.172,2.152-5.301,4.795C239.891,102.394,242.191,104.745,244.971,104.738z
		 M279.916,99.168c-0.305-2.438-1.715-4.201-4.701-4.283c-2.711-0.074-5.123,2.256-5.191,4.906
		c-0.072,2.721,2.271,5.013,5.055,4.945C277.855,104.668,280.002,102.375,279.916,99.168z M174.938,114.525
		c-0.135-2.433-1.383-4.328-4.361-4.627c-2.889-0.291-5.648,2.184-5.531,5.022c0.119,2.914,1.85,4.521,4.672,4.79
		C172.469,119.972,174.799,117.727,174.938,114.525z M204.928,114.366c-0.191-2.436-1.529-4.267-4.502-4.481
		c-2.889-0.208-5.594,2.368-5.379,5.187c0.219,2.896,1.98,4.466,4.822,4.64C202.635,119.88,204.883,117.584,204.928,114.366z
		 M229.971,119.738c2.783-0.007,5.043-2.25,4.934-5.073c-0.109-2.88-1.621-4.614-4.58-4.777c-2.697-0.148-5.172,2.153-5.301,4.795
		C224.891,117.394,227.191,119.745,229.971,119.738z M264.934,114.447c-0.16-2.427-1.447-4.295-4.424-4.555
		c-2.895-0.253-5.623,2.262-5.463,5.096c0.164,2.906,1.904,4.498,4.738,4.722C262.547,119.929,264.836,117.666,264.934,114.447z
		 M189.928,129.361c-0.186-2.436-1.539-4.254-4.502-4.476c-2.887-0.216-5.594,2.366-5.379,5.186c0.219,2.896,1.98,4.466,4.82,4.64
		C187.633,134.881,189.881,132.586,189.928,129.361z M215.391,124.861c-3.141,0.135-5.445,2.541-5.371,5.179
		c0.076,2.701,2.568,4.905,5.309,4.696c2.752-0.21,4.867-2.638,4.57-5.428C219.592,126.414,217.889,124.932,215.391,124.861z
		 M245.494,124.866c-3.166,0.084-5.5,2.441-5.473,5.091c0.027,2.715,2.459,4.943,5.221,4.781c2.754-0.162,4.92-2.558,4.664-5.344
		C249.641,126.508,247.982,124.97,245.494,124.866z M279.934,129.446c-0.16-2.427-1.449-4.293-4.424-4.554
		c-2.896-0.253-5.627,2.262-5.465,5.097c0.166,2.904,1.906,4.498,4.74,4.722C277.547,134.929,279.836,132.666,279.934,129.446z
		 M169.846,29.737c2.771,0.065,5.096-2.133,5.059-4.947c-0.039-2.882-1.508-4.658-4.455-4.902c-2.676-0.221-5.223,2.038-5.426,4.669
		C164.814,27.243,167.076,29.672,169.846,29.737z M200.563,139.87c-3.174,0.045-5.533,2.37-5.543,5.023
		c-0.01,2.717,2.389,4.966,5.16,4.84c2.762-0.125,4.951-2.486,4.727-5.279C204.678,141.568,203.045,140.005,200.563,139.87z
		 M230.494,139.866c-3.166,0.084-5.5,2.441-5.473,5.091c0.025,2.715,2.457,4.939,5.221,4.776c2.758-0.162,4.92-2.554,4.664-5.341
		C234.641,141.507,232.982,139.969,230.494,139.866z M264.934,144.454c-0.16-2.441-1.455-4.305-4.43-4.563
		c-2.895-0.251-5.621,2.269-5.457,5.103c0.168,2.906,1.91,4.495,4.744,4.713C262.557,149.92,264.842,147.657,264.934,144.454z
		 M174.922,144.915c0.113-2.705-1.723-4.831-4.346-5.032c-2.898-0.222-5.648,2.199-5.531,5.04c0.121,2.915,1.852,4.519,4.676,4.783
		C172.479,149.964,174.803,147.726,174.922,144.915z M204.928,24.366c-0.191-2.436-1.529-4.267-4.502-4.481
		c-2.889-0.208-5.594,2.368-5.379,5.187c0.221,2.896,1.98,4.466,4.822,4.64C202.635,29.88,204.883,27.584,204.928,24.366z
		 M229.971,29.738c2.783-0.007,5.043-2.25,4.934-5.073c-0.109-2.88-1.621-4.614-4.58-4.777c-2.697-0.148-5.172,2.153-5.301,4.795
		C224.891,27.394,227.191,29.745,229.971,29.738z"/>
	<path fill-rule="evenodd" clip-rule="evenodd" fill="#FEFEFE" d="M256.918,174.888c-9.318,17.06-9.146,33.272-0.066,49.998
		c-2.287,0-3.895,0-5.502,0c-39.449,0-78.9-0.104-118.349,0.103c-6.561,0.034-10.914-2.689-13.732-8.066
		c-5.896-11.245-5.938-22.707-0.05-33.967c2.799-5.352,7.068-8.205,13.667-8.171c39.615,0.209,79.232,0.104,118.847,0.104
		C253.201,174.888,254.67,174.888,256.918,174.888z"/>
	<path fill-rule="evenodd" clip-rule="evenodd" fill="#FEFCFD" d="M290.02,199.321c-0.164,7.73-1.607,14.647-6.285,20.489
		c-5.314,6.638-11.617,6.729-17.221,0.398c-8.924-10.082-8.682-31.375,0.465-41.204c5.092-5.469,10.773-5.521,15.889,0.033
		C288.242,184.875,289.701,192.127,290.02,199.321z"/>
	<path fill-rule="evenodd" clip-rule="evenodd" fill="#E47EB0" d="M182.785,164.829c-3.279-3.847-3.633-6.31-1.064-8.562
		c2.16-1.895,4.541-2.07,6.744-0.09c2.354,2.117,1.873,4.888-1.326,8.651C185.688,164.829,184.236,164.829,182.785,164.829z"/>
	<path fill-rule="evenodd" clip-rule="evenodd" fill="#E47EB0" d="M242.785,164.829c-3.279-3.847-3.633-6.31-1.064-8.562
		c2.162-1.895,4.543-2.07,6.744-0.09c2.355,2.118,1.875,4.886-1.326,8.651C245.688,164.829,244.236,164.829,242.785,164.829z"/>
	<path fill-rule="evenodd" clip-rule="evenodd" fill="#E57FB1" d="M272.781,164.827c-3.27-3.819-3.588-6.133-1.17-8.486
		c2.051-1.994,5.221-1.992,7.057,0.002c2.105,2.287,1.586,4.938-1.676,8.534C275.588,164.86,274.186,164.844,272.781,164.827z"/>
	<path fill-rule="evenodd" clip-rule="evenodd" fill="#E47EB0" d="M212.785,164.829c-3.279-3.847-3.633-6.31-1.064-8.562
		c2.162-1.895,4.543-2.07,6.744-0.09c2.355,2.118,1.875,4.886-1.326,8.651C215.688,164.829,214.236,164.829,212.785,164.829z"/>
	<path fill-rule="evenodd" clip-rule="evenodd" fill="#E47EB0" d="M264.936,24.478c-0.115,3.216-2.42,5.469-5.18,5.232
		c-2.83-0.243-4.564-1.842-4.711-4.751c-0.141-2.838,2.6-5.334,5.494-5.065C263.518,20.17,264.785,22.052,264.936,24.478z"/>
	<path fill-rule="evenodd" clip-rule="evenodd" fill="#E47EB0" d="M184.846,44.737c-2.77-0.065-5.031-2.494-4.822-5.18
		c0.203-2.638,2.742-4.89,5.424-4.668c2.951,0.243,4.416,2.021,4.455,4.902C189.941,42.603,187.617,44.802,184.846,44.737z"/>
	<path fill-rule="evenodd" clip-rule="evenodd" fill="#E47EB0" d="M215.625,34.874c2.471,0.17,4.088,1.745,4.283,4.637
		c0.188,2.803-2.018,5.133-4.785,5.226c-2.764,0.092-5.146-2.195-5.102-4.9C210.063,37.181,212.447,34.884,215.625,34.874z"/>
	<path fill-rule="evenodd" clip-rule="evenodd" fill="#E47EB0" d="M249.922,39.245c0.025,3.228-2.162,5.565-4.938,5.467
		c-2.854-0.101-4.635-1.65-4.936-4.525c-0.295-2.812,2.354-5.437,5.26-5.302C248.291,35.023,249.668,36.82,249.922,39.245z"/>
	<path fill-rule="evenodd" clip-rule="evenodd" fill="#E47EB0" d="M275.115,44.737c-2.764,0.088-5.141-2.203-5.092-4.909
		c0.047-2.655,2.436-5.001,5.154-4.938c2.969,0.068,4.529,1.757,4.727,4.63C280.1,42.322,277.883,44.648,275.115,44.737z"/>
	<path fill-rule="evenodd" clip-rule="evenodd" fill="#E47EB0" d="M174.928,54.362c-0.045,3.222-2.293,5.518-5.059,5.349
		c-2.842-0.173-4.602-1.744-4.822-4.639c-0.215-2.82,2.49-5.396,5.379-5.187C173.398,50.1,174.738,51.928,174.928,54.362z"/>
	<path fill-rule="evenodd" clip-rule="evenodd" fill="#E47EB0" d="M200.051,59.737c-2.785,0.052-5.115-2.252-5.027-4.974
		c0.084-2.649,2.51-4.975,5.221-4.875c2.967,0.11,4.502,1.822,4.66,4.697C205.061,57.406,202.834,59.685,200.051,59.737z"/>
	<path fill-rule="evenodd" clip-rule="evenodd" fill="#E47EB0" d="M234.924,54.283c0.002,3.237-2.195,5.55-4.977,5.429
		c-2.852-0.124-4.625-1.68-4.9-4.562c-0.268-2.81,2.404-5.422,5.303-5.264C233.33,50.048,234.691,51.856,234.924,54.283z"/>
	<path fill-rule="evenodd" clip-rule="evenodd" fill="#E47EB0" d="M259.971,59.738c-2.779,0.007-5.08-2.344-4.947-5.055
		c0.129-2.642,2.604-4.944,5.301-4.795c2.959,0.163,4.471,1.897,4.58,4.777C265.014,57.487,262.754,59.731,259.971,59.738z"/>
	<path fill-rule="evenodd" clip-rule="evenodd" fill="#E47EB0" d="M185.188,74.734c-2.771,0.128-5.172-2.119-5.166-4.835
		c0.008-2.654,2.363-5.031,5.086-5.008c2.971,0.025,4.555,1.693,4.799,4.559C190.143,72.243,187.949,74.606,185.188,74.734z"/>
	<path fill-rule="evenodd" clip-rule="evenodd" fill="#E47EB0" d="M219.938,69.523c-0.139,3.204-2.463,5.442-5.219,5.183
		c-2.826-0.266-4.555-1.872-4.674-4.786c-0.117-2.841,2.637-5.313,5.531-5.022C218.553,65.196,219.803,67.091,219.938,69.523z"/>
	<path fill-rule="evenodd" clip-rule="evenodd" fill="#E47EB0" d="M244.926,74.732c-2.779-0.02-5.063-2.393-4.902-5.095
		c0.156-2.638,2.656-4.924,5.344-4.749c2.955,0.192,4.453,1.938,4.537,4.82C249.988,72.532,247.711,74.752,244.926,74.732z"/>
	<path fill-rule="evenodd" clip-rule="evenodd" fill="#E47EB0" d="M275.422,64.862c2.492,0.081,4.184,1.577,4.479,4.469
		c0.285,2.79-1.84,5.205-4.596,5.402c-2.752,0.196-5.221-2.008-5.283-4.717C269.961,67.373,272.271,64.983,275.422,64.862z"/>
	<path fill-rule="evenodd" clip-rule="evenodd" fill="#E47EB0" d="M174.912,84.13c0.121,3.18-2.014,5.506-4.781,5.602
		c-2.773,0.096-5.15-2.179-5.109-4.891c0.039-2.657,2.42-5,5.141-4.956C173.15,79.936,174.58,81.682,174.912,84.13z"/>
	<path fill-rule="evenodd" clip-rule="evenodd" fill="#E47EB0" d="M204.932,84.447c-0.094,3.218-2.381,5.476-5.146,5.26
		c-2.834-0.222-4.574-1.813-4.74-4.718c-0.162-2.834,2.568-5.35,5.463-5.097C203.484,80.151,204.771,82.019,204.932,84.447z"/>
	<path fill-rule="evenodd" clip-rule="evenodd" fill="#E47EB0" d="M234.912,84.112c0.135,3.167-1.99,5.509-4.754,5.62
		c-2.768,0.111-5.16-2.155-5.137-4.863c0.025-2.655,2.395-5.012,5.115-4.982C233.127,79.918,234.564,81.658,234.912,84.112z"/>
	<path fill-rule="evenodd" clip-rule="evenodd" fill="#E47EB0" d="M264.934,84.454c-0.092,3.204-2.377,5.466-5.143,5.253
		c-2.834-0.218-4.576-1.807-4.744-4.713c-0.164-2.833,2.563-5.354,5.457-5.103C263.479,80.149,264.773,82.012,264.934,84.454z"/>
	<path fill-rule="evenodd" clip-rule="evenodd" fill="#E47EB0" d="M189.922,99.845c-0.08,2.812-2.367,5.08-5.129,4.865
		c-2.834-0.22-4.578-1.81-4.746-4.715c-0.166-2.833,2.559-5.3,5.457-5.119C188.137,95.041,189.996,97.133,189.922,99.845z"/>
	<path fill-rule="evenodd" clip-rule="evenodd" fill="#E47EB0" d="M215.719,94.881c2.467,0.23,4.057,1.831,4.188,4.73
		c0.129,2.819-2.104,5.089-4.883,5.127s-5.104-2.286-5.002-5.001C210.121,97.088,212.561,94.829,215.719,94.881z"/>
	<path fill-rule="evenodd" clip-rule="evenodd" fill="#E47EB0" d="M244.971,104.738c-2.779,0.007-5.08-2.345-4.947-5.055
		c0.129-2.643,2.604-4.944,5.301-4.795c2.959,0.163,4.471,1.896,4.58,4.777C250.014,102.488,247.754,104.731,244.971,104.738z"/>
	<path fill-rule="evenodd" clip-rule="evenodd" fill="#E47EB0" d="M279.916,99.168c0.086,3.206-2.061,5.5-4.838,5.568
		c-2.783,0.068-5.127-2.224-5.055-4.945c0.068-2.65,2.48-4.98,5.191-4.906C278.201,94.968,279.611,96.73,279.916,99.168z"/>
	<path fill-rule="evenodd" clip-rule="evenodd" fill="#E47EB0" d="M174.938,114.525c-0.139,3.202-2.469,5.446-5.221,5.185
		c-2.822-0.269-4.553-1.875-4.672-4.79c-0.117-2.838,2.643-5.313,5.531-5.022C173.555,110.197,174.803,112.093,174.938,114.525z"/>
	<path fill-rule="evenodd" clip-rule="evenodd" fill="#E47EB0" d="M204.928,114.366c-0.045,3.219-2.293,5.515-5.059,5.345
		c-2.842-0.174-4.604-1.744-4.822-4.64c-0.215-2.819,2.49-5.396,5.379-5.187C203.398,110.099,204.736,111.93,204.928,114.366z"/>
	<path fill-rule="evenodd" clip-rule="evenodd" fill="#E47EB0" d="M229.971,119.738c-2.779,0.007-5.08-2.344-4.947-5.055
		c0.129-2.642,2.604-4.944,5.301-4.795c2.959,0.163,4.471,1.896,4.58,4.777C235.014,117.488,232.754,119.731,229.971,119.738z"/>
	<path fill-rule="evenodd" clip-rule="evenodd" fill="#E47EB0" d="M264.934,114.447c-0.098,3.218-2.387,5.482-5.148,5.263
		c-2.834-0.225-4.574-1.816-4.738-4.722c-0.16-2.834,2.568-5.35,5.463-5.096C263.486,110.152,264.773,112.02,264.934,114.447z"/>
	<path fill-rule="evenodd" clip-rule="evenodd" fill="#E47EB0" d="M189.928,129.361c-0.047,3.225-2.295,5.52-5.061,5.35
		c-2.84-0.174-4.602-1.744-4.82-4.64c-0.215-2.82,2.492-5.402,5.379-5.186C188.389,125.107,189.742,126.925,189.928,129.361z"/>
	<path fill-rule="evenodd" clip-rule="evenodd" fill="#E47EB0" d="M215.391,124.861c2.498,0.071,4.201,1.553,4.508,4.447
		c0.297,2.79-1.818,5.218-4.57,5.428c-2.74,0.209-5.232-1.995-5.309-4.696C209.945,127.402,212.25,124.996,215.391,124.861z"/>
	<path fill-rule="evenodd" clip-rule="evenodd" fill="#E47EB0" d="M245.494,124.866c2.488,0.104,4.146,1.643,4.412,4.527
		c0.256,2.786-1.91,5.183-4.664,5.344c-2.762,0.162-5.193-2.065-5.221-4.781C239.994,127.307,242.328,124.95,245.494,124.866z"/>
	<path fill-rule="evenodd" clip-rule="evenodd" fill="#E47EB0" d="M279.934,129.446c-0.098,3.22-2.387,5.483-5.148,5.265
		c-2.834-0.224-4.574-1.817-4.74-4.722c-0.162-2.835,2.568-5.351,5.465-5.097C278.484,125.152,279.773,127.019,279.934,129.446z"/>
	<path fill-rule="evenodd" clip-rule="evenodd" fill="#E47EB0" d="M169.846,29.737c-2.77-0.065-5.031-2.494-4.822-5.179
		c0.203-2.631,2.75-4.891,5.426-4.669c2.947,0.244,4.416,2.02,4.455,4.902C174.941,27.604,172.617,29.802,169.846,29.737z"/>
	<path fill-rule="evenodd" clip-rule="evenodd" fill="#E47EB0" d="M200.563,139.87c2.482,0.135,4.115,1.699,4.344,4.584
		c0.225,2.792-1.965,5.154-4.727,5.279c-2.771,0.125-5.17-2.124-5.16-4.84C195.029,142.24,197.389,139.915,200.563,139.87z"/>
	<path fill-rule="evenodd" clip-rule="evenodd" fill="#E47EB0" d="M230.494,139.866c2.488,0.104,4.146,1.641,4.412,4.526
		c0.256,2.787-1.906,5.18-4.664,5.341c-2.764,0.163-5.195-2.061-5.221-4.776C224.994,142.307,227.328,139.95,230.494,139.866z"/>
	<path fill-rule="evenodd" clip-rule="evenodd" fill="#E47EB0" d="M264.934,144.454c-0.092,3.204-2.377,5.466-5.143,5.253
		c-2.834-0.218-4.576-1.807-4.744-4.713c-0.164-2.833,2.563-5.354,5.457-5.103C263.479,140.149,264.773,142.012,264.934,144.454z"/>
	<path fill-rule="evenodd" clip-rule="evenodd" fill="#E47EB0" d="M174.922,144.915c-0.119,2.811-2.443,5.049-5.201,4.791
		c-2.824-0.265-4.555-1.869-4.676-4.783c-0.117-2.841,2.633-5.262,5.531-5.04C173.199,140.084,175.035,142.21,174.922,144.915z"/>
	<path fill-rule="evenodd" clip-rule="evenodd" fill="#E47EB0" d="M204.928,24.366c-0.045,3.219-2.293,5.515-5.059,5.345
		c-2.842-0.174-4.602-1.744-4.822-4.64c-0.215-2.819,2.49-5.396,5.379-5.187C203.398,20.099,204.736,21.93,204.928,24.366z"/>
	<path fill-rule="evenodd" clip-rule="evenodd" fill="#E47EB0" d="M229.971,29.738c-2.779,0.007-5.08-2.344-4.947-5.055
		c0.129-2.642,2.604-4.944,5.301-4.795c2.959,0.163,4.471,1.896,4.58,4.777C235.014,27.488,232.754,29.731,229.971,29.738z"/>
</g>
</svg>
