<?xml version="1.0" encoding="utf-8"?>
<!-- Generator: Adobe Illustrator 16.0.0, SVG Export Plug-In . SVG Version: 6.00 Build 0)  -->
<!DOCTYPE svg PUBLIC "-//W3C//DTD SVG 1.1//EN" "http://www.w3.org/Graphics/SVG/1.1/DTD/svg11.dtd">
<svg version="1.1" id="Layer_1" xmlns="http://www.w3.org/2000/svg" xmlns:xlink="http://www.w3.org/1999/xlink" x="0px" y="0px"
	 width="300px" height="300px" viewBox="0 0 300 300" enable-background="new 0 0 300 300" xml:space="preserve">
<g>
	<path fill-rule="evenodd" clip-rule="evenodd" fill="#FEFEFE" d="M110,301c-4.333,0-8.667,0-13,0c0-4.107,0-8.216,0-12.914
		c-18.702,0-36.576,0-55.06,0c0-54.203,0-107.803,0-162.36c-3.435,2.689-5.884,4.927-8.639,6.687
		c-4.058,2.593-5.27,5.933-5.239,10.79c0.228,36.788,0.143,73.578,0.116,110.367C28.167,269.379,28.062,285.189,28,301
		c-9,0-18,0-27,0c0-54.667,0-109.333,0-164c1.558-0.863,3.259-1.541,4.652-2.617c35.817-27.662,71.6-55.368,107.393-83.061
		c12.747-9.862,25.504-19.711,38.301-29.601c0.937,0.606,1.659,1.003,2.304,1.502c19.479,15.063,38.934,30.158,58.426,45.205
		C241.704,91.302,271.357,114.145,301,137c0,54.667,0,109.333,0,164c-8.667,0-17.333,0-26,0c-0.042-1.998-0.12-3.996-0.12-5.994
		c-0.007-51.326,0.007-102.653-0.053-153.98c-0.003-1.892-0.058-4.453-1.196-5.55c-3.625-3.488-7.775-6.43-12.745-10.399
		c0,55.145,0,108.856,0,163.034c-2.349,0-4.146-0.001-5.942-0.001c-14.664,0.001-29.33,0.085-43.993-0.063
		c-3.396-0.034-4.923,0.899-4.698,4.489c0.176,2.805-0.149,5.642-0.252,8.464c-4.333,0-8.667,0-13,0
		c-0.074-1.993-0.213-3.986-0.214-5.979c-0.012-41.304-0.009-82.608-0.009-123.913c0-1.918,0-3.837,0-5.72
		c-27.912,0-54.977,0-82.554,0c0,2.291,0,4.255,0,6.22c0,33.144,0.017,66.287-0.01,99.431C110.205,281.025,110.074,291.013,110,301z
		"/>
	<path fill-rule="evenodd" clip-rule="evenodd" fill="#FEFEFE" d="M1,117C1,78.406,1,39.812,1,1c50,0,100,0,150,0
		c-0.465,0.457-0.89,0.967-1.402,1.364C117.494,27.226,85.405,52.105,53.266,76.92C35.888,90.337,18.425,103.644,1,117z"/>
	<path fill-rule="evenodd" clip-rule="evenodd" fill="#FDFEFD" d="M152,1c49.667,0,99.333,0,149,0c0,38.333,0,76.667,0,115
		c-1.39-0.875-2.862-1.641-4.156-2.64c-35.107-27.103-70.216-54.206-105.279-81.365C178.32,21.736,165.185,11.336,152,1z
		 M274.389,81.073c0-25.167,0-48.969,0-72.722c-13.814,0-27.208,0-41.059,0c0,13.132-0.013,25.915,0.033,38.696
		c0.003,0.775,0.246,1.801,0.771,2.283c3.953,3.633,8.005,7.158,13.113,11.681c0-13.956,0-26.334,0-38.805c4.808,0,9.033,0,13.727,0
		c0,2.134,0,3.933,0,5.731c0,12.482-0.043,24.964,0.051,37.446c0.013,1.719,0.146,3.995,1.193,5.046
		C265.701,73.928,269.627,76.984,274.389,81.073z"/>
	<path fill-rule="evenodd" clip-rule="evenodd" fill="#79E39F" d="M152,1c13.185,10.336,26.32,20.736,39.564,30.995
		c35.063,27.16,70.172,54.262,105.279,81.365c1.294,0.999,2.767,1.765,4.156,2.64c0,7,0,14,0,21
		c-29.643-22.855-59.296-45.698-88.925-68.572c-19.492-15.047-38.947-30.142-58.426-45.205c-0.645-0.499-1.367-0.896-2.304-1.502
		c-12.797,9.89-25.555,19.738-38.301,29.601C77.251,79.015,41.469,106.721,5.652,134.383C4.259,135.459,2.558,136.137,1,137
		c0-6.667,0-13.333,0-20c17.425-13.356,34.888-26.663,52.266-40.08c32.139-24.815,64.229-49.694,96.332-74.556
		C150.11,1.967,150.535,1.457,151,1C151.333,1,151.667,1,152,1z"/>
	<path fill-rule="evenodd" clip-rule="evenodd" fill="#7CE4A0" d="M110,301c0.074-9.987,0.205-19.975,0.213-29.962
		c0.027-33.144,0.01-66.287,0.01-99.431c0-1.965,0-3.929,0-6.22c27.577,0,54.642,0,82.554,0c0,1.883,0,3.802,0,5.72
		c0,41.305-0.003,82.609,0.009,123.913c0.001,1.993,0.14,3.986,0.214,5.979C165.333,301,137.667,301,110,301z M124.341,287.778
		c18.235,0,36.116,0,54.252,0c0-36.31,0-72.323,0-108.557c-18.205,0-36.087,0-54.252,0
		C124.341,215.406,124.341,251.298,124.341,287.778z"/>
	<path fill-rule="evenodd" clip-rule="evenodd" fill="#7AE49F" d="M206,301c0.103-2.822,0.428-5.659,0.252-8.464
		c-0.225-3.59,1.303-4.523,4.698-4.489c14.663,0.147,29.329,0.063,43.993,0.063c1.797,0,3.594,0.001,5.942,0.001
		c0-54.178,0-107.89,0-163.034c4.97,3.97,9.12,6.912,12.745,10.399c1.139,1.097,1.193,3.658,1.196,5.55
		c0.06,51.327,0.046,102.654,0.053,153.98c0,1.998,0.078,3.996,0.12,5.994C252,301,229,301,206,301z"/>
	<path fill-rule="evenodd" clip-rule="evenodd" fill="#7BE4A0" d="M28,301c0.062-15.811,0.167-31.621,0.178-47.431
		c0.026-36.789,0.112-73.579-0.116-110.367c-0.03-4.857,1.181-8.197,5.239-10.79c2.754-1.76,5.204-3.998,8.639-6.687
		c0,54.557,0,108.157,0,162.36c18.484,0,36.358,0,55.06,0c0,4.698,0,8.807,0,12.914C74,301,51,301,28,301z"/>
	<path fill-rule="evenodd" clip-rule="evenodd" fill="#7BE4A0" d="M274.389,81.073c-4.762-4.089-8.688-7.146-12.171-10.643
		c-1.047-1.052-1.181-3.327-1.193-5.046c-0.094-12.481-0.051-24.964-0.051-37.446c0-1.799,0-3.597,0-5.731
		c-4.693,0-8.919,0-13.727,0c0,12.471,0,24.849,0,38.805c-5.108-4.522-9.16-8.048-13.113-11.681
		c-0.524-0.482-0.768-1.508-0.771-2.283c-0.046-12.782-0.033-25.564-0.033-38.696c13.851,0,27.244,0,41.059,0
		C274.389,32.104,274.389,55.906,274.389,81.073z"/>
	<path fill-rule="evenodd" clip-rule="evenodd" fill="#FDFEFD" d="M124.341,287.778c0-36.48,0-72.372,0-108.557
		c18.165,0,36.047,0,54.252,0c0,36.233,0,72.247,0,108.557C160.457,287.778,142.576,287.778,124.341,287.778z"/>
</g>
</svg>
